<?xml version="1.0" encoding="UTF-8" standalone="no"?>
<!-- Created with Inkscape (http://www.inkscape.org/) -->
<svg
   xmlns:dc="http://purl.org/dc/elements/1.1/"
   xmlns:cc="http://creativecommons.org/ns#"
   xmlns:rdf="http://www.w3.org/1999/02/22-rdf-syntax-ns#"
   xmlns:svg="http://www.w3.org/2000/svg"
   xmlns="http://www.w3.org/2000/svg"
   xmlns:sodipodi="http://sodipodi.sourceforge.net/DTD/sodipodi-0.dtd"
   xmlns:inkscape="http://www.inkscape.org/namespaces/inkscape"
   width="655.80695"
   height="1022.4695"
   id="svg2"
   sodipodi:version="0.32"
   inkscape:version="0.46"
   version="1.0"
   sodipodi:docname="ust.svg"
   inkscape:output_extension="org.inkscape.output.svg.inkscape">
  <defs
     id="defs4">
    <inkscape:perspective
       sodipodi:type="inkscape:persp3d"
       inkscape:vp_x="0 : 526.18109 : 1"
       inkscape:vp_y="0 : 1000 : 0"
       inkscape:vp_z="744.09448 : 526.18109 : 1"
       inkscape:persp3d-origin="372.04724 : 350.78739 : 1"
       id="perspective10" />
    <clipPath
       id="clipPath2480"
       clipPathUnits="userSpaceOnUse">
      <path
         id="path2482"
         d="M 315.743,446.947 L 279.459,446.947 L 279.459,395.073 L 315.743,395.073 L 315.743,446.947 z" />
    </clipPath>
    <clipPath
       id="clipPath2418"
       clipPathUnits="userSpaceOnUse">
      <path
         id="path2420"
         d="M 315.743,446.947 L 279.459,446.947 L 279.459,395.073 L 315.743,395.073 L 315.743,446.947 z" />
    </clipPath>
    <inkscape:perspective
       id="perspective2410"
       inkscape:persp3d-origin="372.04724 : 350.78739 : 1"
       inkscape:vp_z="744.09448 : 526.18109 : 1"
       inkscape:vp_y="0 : 1000 : 0"
       inkscape:vp_x="0 : 526.18109 : 1"
       sodipodi:type="inkscape:persp3d" />
  </defs>
  <sodipodi:namedview
     id="base"
     pagecolor="#ffffff"
     bordercolor="#666666"
     borderopacity="1.0"
     gridtolerance="10000"
     guidetolerance="10"
     objecttolerance="10"
     inkscape:pageopacity="0.0"
     inkscape:pageshadow="2"
     inkscape:zoom="0.39742372"
     inkscape:cx="343.61094"
     inkscape:cy="515.41641"
     inkscape:document-units="px"
     inkscape:current-layer="layer1"
     showgrid="false"
     inkscape:window-width="1024"
     inkscape:window-height="712"
     inkscape:window-x="-4"
     inkscape:window-y="-4" />
  <metadata
     id="metadata7">
    <rdf:RDF>
      <cc:Work
         rdf:about="">
        <dc:format>image/svg+xml</dc:format>
        <dc:type
           rdf:resource="http://purl.org/dc/dcmitype/StillImage" />
      </cc:Work>
    </rdf:RDF>
  </metadata>
  <g
     inkscape:label="Layer 1"
     inkscape:groupmode="layer"
     id="layer1"
     transform="translate(-49.233509,-12.295886)">
    <g
       id="g3441">
      <g
         style="fill:#cc9900;fill-opacity:1"
         id="g2428"
         transform="matrix(26.934735,0,0,-26.934735,517.62855,221.87506)">
        <path
           d="M 0,0 C 0.176,0.227 0.24,0.631 0.24,0.631 L -10.523,0.631 C -10.523,0.631 -10.391,0.18 -10.277,0 L 0,0"
           style="fill:#cc9900;fill-opacity:1;fill-rule:nonzero;stroke:none"
           id="path2430" />
      </g>
      <g
         style="fill:#cc9900;fill-opacity:1"
         id="g2432"
         transform="matrix(26.934735,0,0,-26.934735,500.74047,246.35874)">
        <path
           d="M 0,0 C 0.201,0.174 0.404,0.531 0.404,0.531 L -9.449,0.531 C -9.449,0.531 -9.342,0.264 -9.094,0 L 0,0"
           style="fill:#cc9900;fill-opacity:1;fill-rule:nonzero;stroke:none"
           id="path2434" />
      </g>
      <g
         style="fill:#cc9900;fill-opacity:1"
         id="g2436"
         transform="matrix(26.934735,0,0,-26.934735,479.81218,268.6607)">
        <path
           d="M 0,0 C 0.244,0.133 0.441,0.402 0.441,0.402 L -7.984,0.402 C -7.984,0.402 -7.781,0.18 -7.58,0 L 0,0"
           style="fill:#cc9900;fill-opacity:1;fill-rule:nonzero;stroke:none"
           id="path2438" />
      </g>
      <g
         style="fill:#cc9900;fill-opacity:1"
         id="g2440"
         transform="matrix(26.934735,0,0,-26.934735,453.41614,289.69672)">
        <path
           d="M 0,0 C 0.24,0.09 0.51,0.314 0.51,0.314 L -6.064,0.314 C -6.064,0.314 -6.064,0.266 -5.596,0 L 0,0"
           style="fill:#cc9900;fill-opacity:1;fill-rule:nonzero;stroke:none"
           id="path2442" />
      </g>
      <g
         style="fill:#cc9900;fill-opacity:1"
         id="g2444"
         transform="matrix(26.934735,0,0,-26.934735,322.99815,302.84088)">
        <path
           d="M 0,0 C 0,0 0.695,-0.408 2.051,-0.408 C 3.414,-0.408 4.281,0 4.281,0 L 0,0"
           style="fill:#cc9900;fill-opacity:1;fill-rule:nonzero;stroke:none"
           id="path2446" />
      </g>
      <g
         style="fill:#15429b;fill-opacity:1"
         id="g2448"
         transform="matrix(26.934735,0,0,-26.934735,320.0084,327.45922)">
        <path
           d="M 0,0 C 0,0 0.826,-0.043 1.314,-0.426 C 1.783,-0.826 2.143,-1.49 2.143,-1.49 C 2.143,-1.49 2.432,-0.852 2.9,-0.516 C 3.367,-0.156 4.127,0 4.127,0 L 12.621,0 L 14.295,-2.477 L 6.666,-2.477 C 6.666,-2.477 6.131,-2.494 5.33,-2.969 C 4.906,-3.209 4.59,-3.633 4.59,-3.633 C 4.59,-3.633 4.527,-3.836 4.438,-3.943 C 4.348,-4.055 4.279,-4.15 4.168,-4.193 C 4.057,-4.236 4.082,-4.215 4.082,-4.215 L 0.111,-4.215 C 0.111,-4.215 -0.049,-4.15 -0.133,-4.012 C -0.219,-3.879 -0.156,-3.924 -0.24,-3.816 C -0.311,-3.707 -0.469,-3.414 -1.068,-3.012 C -1.693,-2.607 -2.297,-2.568 -2.297,-2.568 L -10.053,-2.568 L -8.357,0 L 0,0"
           style="fill:#15429b;fill-opacity:1;fill-rule:nonzero;stroke:none"
           id="path2450" />
      </g>
      <g
         style="fill:#15429b;fill-opacity:1"
         id="g2452"
         transform="matrix(26.934735,0,0,-26.934735,158.48079,421.7308)">
        <path
           d="M 0,0 L 0,-12.66 C 0,-12.66 0.043,-13.781 0.98,-15.291 C 1.916,-16.811 3.275,-17.5 3.275,-17.5 L 4.35,-15.828 C 4.35,-15.828 3.414,-15.271 2.697,-14.201 C 2.008,-13.131 2.008,-12.215 2.008,-12.215 L 2.008,0 L 0,0"
           style="fill:#15429b;fill-opacity:1;fill-rule:nonzero;stroke:none"
           id="path2454" />
      </g>
      <g
         style="fill:#15429b;fill-opacity:1"
         id="g2456"
         transform="matrix(26.934735,0,0,-26.934735,545.20972,420.62647)">
        <path
           d="M 0,0 L 0,-12.213 C 0,-12.213 -0.158,-13.439 -0.736,-14.309 C -1.318,-15.199 -2.275,-15.912 -2.275,-15.912 L -1.246,-17.563 C -1.246,-17.563 0.311,-16.428 1.068,-15.219 C 1.826,-14.021 2.008,-12.213 2.008,-12.213 L 2.008,0 L 0,0"
           style="fill:#15429b;fill-opacity:1;fill-rule:nonzero;stroke:none"
           id="path2458" />
      </g>
      <g
         style="fill:#15429b;fill-opacity:1"
         id="g2460"
         transform="matrix(26.934735,0,0,-26.934735,72.693662,421.7308)">
        <path
           d="M 0,0 L 0,-12.707 C 0,-12.707 0.131,-14.672 1.357,-16.723 C 2.586,-18.768 4.811,-20.197 4.811,-20.197 L 5.859,-18.529 C 5.859,-18.529 4.436,-17.77 3.299,-16.029 C 2.137,-14.268 2.074,-12.66 2.074,-12.66 L 2.074,0 L 0,0"
           style="fill:#15429b;fill-opacity:1;fill-rule:nonzero;stroke:none"
           id="path2462" />
      </g>
      <g
         style="fill:#cc9900;fill-opacity:0.87843137"
         id="g2464"
         transform="matrix(26.934735,0,0,-26.934735,320.0084,457.76947)">
        <path
           d="M 0,0 L 0,-13.418 C 0,-13.418 -0.049,-13.467 -0.066,-13.666 C -0.09,-13.869 -0.219,-14.002 -0.219,-14.002 L -4.699,-21.422 L 9.033,-21.422 L 4.549,-13.84 L 4.416,-13.51 L 4.371,-13.15 L 4.371,-0.023 L 2.699,-0.023 L 2.699,-13.646 C 2.699,-13.646 2.699,-13.84 2.768,-14.002 C 2.809,-14.16 2.9,-14.402 2.9,-14.402 L 5.664,-18.947 L -1.338,-18.947 L 1.383,-14.422 C 1.383,-14.422 1.473,-14.268 1.539,-14.043 C 1.586,-13.84 1.605,-13.646 1.605,-13.646 L 1.605,0 L 0,0"
           style="fill:#cc9900;fill-opacity:0.87843137;fill-rule:nonzero;stroke:none"
           id="path2466" />
      </g>
      <g
         style="fill:#15429b;fill-opacity:1"
         id="g2468"
         transform="matrix(26.934735,0,0,-26.934735,628.65353,420.62647)">
        <path
           d="M 0,0 L 0,-12.486 C 0,-12.486 -0.02,-14.086 -1.203,-15.936 C -2.383,-17.789 -3.742,-18.57 -3.742,-18.57 L -2.74,-20.262 C -2.74,-20.262 -0.689,-18.967 0.602,-16.918 C 1.873,-14.865 2.031,-12.486 2.031,-12.486 L 2.031,0 L 0,0"
           style="fill:#15429b;fill-opacity:1;fill-rule:nonzero;stroke:none"
           id="path2470" />
      </g>
      <g
         style="fill:#cc9900;fill-opacity:1"
         id="g2472"
         transform="matrix(26.934735,0,0,-26.934735,232.36277,195.37128)">
        <path
           d="M 0,0 C 0,0 -0.689,3.766 2.074,5.641 C 2.074,5.641 3.322,6.797 5.352,6.797 C 7.512,6.797 8.76,5.662 8.76,5.662 C 11.77,3.457 10.879,0 10.879,0 L 0,0"
           style="fill:#cc9900;fill-opacity:1;fill-rule:nonzero;stroke:none"
           id="path2474" />
      </g>
    </g>
  </g>
</svg>
